<svg version="1.1" id="Layer_1" xmlns="http://www.w3.org/2000/svg" xmlns:xlink="http://www.w3.org/1999/xlink" x="0px" y="0px"
	 width="100%" viewBox="0 0 175 175" enable-background="new 0 0 175 175" xml:space="preserve">
<path fill="#030303" opacity="1.000000" stroke="none" 
	d="
M93.000000,176.000000 
	C62.000000,176.000000 31.500004,176.000000 1.000004,176.000000 
	C1.000003,117.666672 1.000003,59.333344 1.000001,1.000012 
	C59.333324,1.000008 117.666649,1.000008 175.999969,1.000004 
	C175.999985,59.333324 175.999985,117.666649 176.000000,175.999985 
	C148.500000,176.000000 121.000000,176.000000 93.000000,176.000000 
M147.499985,6.171624 
	C100.124886,6.171624 52.749786,6.171624 5.462048,6.171624 
	C5.462048,61.372147 5.462048,115.768471 5.462048,170.343353 
	C60.426720,170.343353 115.128555,170.343353 169.756317,170.343353 
	C169.756317,115.513176 169.756317,60.977314 169.756317,6.171625 
	C162.444138,6.171625 155.472031,6.171625 147.499985,6.171624 
z"/>
<path fill="#FCFCFC" opacity="1.000000" stroke="none" 
	d="
M147.999939,6.171625 
	C155.472031,6.171625 162.444138,6.171625 169.756317,6.171625 
	C169.756317,60.977314 169.756317,115.513176 169.756317,170.343353 
	C115.128555,170.343353 60.426720,170.343353 5.462048,170.343353 
	C5.462048,115.768471 5.462048,61.372147 5.462048,6.171624 
	C52.749786,6.171624 100.124886,6.171624 147.999939,6.171625 
M92.547485,35.984661 
	C92.375694,35.986622 92.203911,35.988583 91.426414,35.712563 
	C88.885887,35.712563 86.345352,35.712563 84.091019,35.712563 
	C83.923164,39.250340 83.774933,42.374470 83.600739,46.045769 
	C86.413101,45.674110 89.197113,45.306198 92.824890,44.876904 
	C96.234451,45.107101 100.100311,45.970940 99.102310,40.214569 
	C99.045464,39.886677 99.500923,39.430527 99.785568,39.090714 
	C100.471199,38.272152 101.196991,37.487225 101.906593,36.688732 
	C100.764320,36.298412 99.633369,35.629139 98.477165,35.582249 
	C96.680725,35.509396 94.867119,35.860085 92.547485,35.984661 
M66.010963,115.021149 
	C62.382778,114.677109 58.754597,114.333076 55.126411,113.989037 
	C55.119858,115.131195 54.651562,116.740952 55.219269,117.301575 
	C55.993938,118.066544 57.557911,118.032196 59.875851,118.615364 
	C56.564346,124.232407 53.407963,129.444443 50.467365,134.775513 
	C50.143894,135.361954 50.971493,137.406799 51.411354,137.455490 
	C54.020481,137.744415 56.680447,137.735641 59.296814,137.513977 
	C59.524532,137.494675 59.767551,135.180573 59.587936,133.995392 
	C59.511536,133.491272 58.363941,133.149490 56.583996,132.030121 
	C61.551617,132.030121 65.126793,132.030121 69.011406,132.030121 
	C67.534958,133.858124 66.567673,135.055725 65.600388,136.253326 
	C67.212448,136.803909 68.808708,137.409836 70.444687,137.876572 
	C71.059700,138.052048 71.825912,138.075119 72.419861,137.869385 
	C73.708496,137.423004 74.930565,136.784424 76.179848,136.224426 
	C75.444786,135.322540 74.628899,134.473434 73.996147,133.504715 
	C73.284821,132.415695 72.640007,131.260040 72.138237,130.061386 
	C70.154709,125.323166 68.238541,120.556732 66.010963,115.021149 
M129.218109,71.459999 
	C130.234467,71.999931 131.250824,72.539864 132.267166,73.079788 
	C132.669373,70.529213 133.071564,67.978645 133.474762,65.421692 
	C130.749405,65.117508 129.109055,65.075874 127.534134,64.733376 
	C121.711693,63.467152 116.711494,65.707062 115.848862,70.068871 
	C114.904984,74.841507 117.446663,77.568222 124.150223,78.973633 
	C124.475761,79.041885 124.859550,79.016235 125.119362,79.184158 
	C126.786842,80.261894 128.427261,81.381485 130.076584,82.487320 
	C128.000793,83.447517 125.986389,84.933014 123.827881,85.185211 
	C122.362816,85.356400 120.663185,83.854568 119.130028,82.991547 
	C118.094917,82.408882 117.167007,81.635765 116.191147,80.947838 
	C115.706291,82.239395 114.850853,83.527962 114.840370,84.823357 
	C114.829803,86.129700 115.560059,88.528229 116.134300,88.580048 
	C120.451118,88.969536 124.945877,89.552406 129.096634,88.688843 
	C131.124817,88.266869 133.879181,84.877533 133.871017,82.841057 
	C133.861832,80.550224 131.440277,77.896553 129.432373,76.118752 
	C128.119781,74.956558 125.514610,75.391083 123.789299,74.516693 
	C122.296600,73.760201 121.228012,72.166885 119.971947,70.943481 
	C121.761665,70.089165 123.493546,68.792862 125.363045,68.548218 
	C126.464340,68.404106 127.783943,69.928276 129.218109,71.459999 
M84.973976,71.889870 
	C81.364525,65.633102 72.412819,62.389668 65.624832,65.133675 
	C65.014565,65.380371 64.975525,67.466553 64.966461,68.700623 
	C64.926285,74.172966 65.826149,79.823898 64.709274,85.052048 
	C64.042953,88.171104 64.128326,88.803368 66.910927,88.983093 
	C68.568665,89.090179 70.238739,89.010002 71.903259,89.007675 
	C83.352005,88.991661 87.504303,83.884987 84.973976,71.889870 
M98.307426,124.459244 
	C99.805275,117.841042 97.109932,114.079384 90.570702,113.793137 
	C87.911774,113.676743 85.233818,113.616814 82.584373,113.807297 
	C81.060928,113.916817 79.577209,114.578972 78.075607,114.992363 
	C78.886177,116.016563 79.829231,116.966179 80.462067,118.090431 
	C80.905167,118.877594 81.084198,119.899742 81.104500,120.823036 
	C81.177681,124.151192 81.253235,127.488777 81.063553,130.807693 
	C81.003822,131.852798 80.166428,132.881546 79.587219,133.859909 
	C79.133789,134.625809 78.529510,135.302414 77.992264,136.018707 
	C78.864151,136.638550 79.690094,137.696350 80.616798,137.793533 
	C83.087723,138.052689 85.631172,138.129639 88.087654,137.819092 
	C89.479813,137.643097 90.757568,136.562225 92.086845,135.888901 
	C90.843590,135.186920 89.601936,133.898666 88.356773,133.895279 
	C84.921280,133.885880 85.065834,132.243866 86.596497,131.045273 
	C90.389816,129.086365 94.183136,127.127472 98.307426,124.459244 
M93.783020,89.000229 
	C95.776413,88.995506 97.769836,88.980316 99.763184,88.988182 
	C104.194801,89.005676 107.660004,87.074280 109.247589,83.017052 
	C112.394295,74.975365 108.933746,64.165947 97.998367,64.829735 
	C95.681015,64.970390 93.331635,64.698914 91.030418,64.938370 
	C89.962112,65.049538 88.973877,65.930099 87.806450,66.536049 
	C90.316360,69.399155 92.555458,82.244545 90.506584,84.222618 
	C85.377831,89.174164 89.149834,88.904533 93.783020,89.000229 
M55.728065,88.442673 
	C56.900120,87.525192 58.230236,86.751472 59.217510,85.665939 
	C64.103706,80.293419 63.473156,71.578300 57.949341,66.900772 
	C53.117981,62.809608 46.768661,63.429043 42.494499,68.408554 
	C39.125881,72.333084 38.567848,79.453651 41.284569,83.847359 
	C44.343998,88.795326 48.345467,90.238693 55.728065,88.442673 
M107.083542,137.898224 
	C110.743835,137.895340 114.414070,138.040054 118.058052,137.794800 
	C119.080414,137.725998 120.025574,136.510147 121.006149,135.820450 
	C120.080780,135.147186 119.241959,134.211136 118.207100,133.870331 
	C117.038139,133.485382 115.692993,133.635406 114.465416,133.555435 
	C114.465416,128.147461 114.465416,123.108910 114.465416,117.894638 
	C115.633827,117.894638 116.569534,118.145424 117.260605,117.840950 
	C118.583084,117.258301 119.766434,116.359848 121.007515,115.592445 
	C119.684799,114.983589 118.402702,113.993690 117.030663,113.847412 
	C114.398453,113.566803 111.692818,113.554527 109.060585,113.834518 
	C107.136070,114.039230 105.280243,114.889603 103.393799,115.452187 
	C105.281708,116.297318 107.171989,117.137222 109.054840,117.993477 
	C109.323708,118.115753 109.556580,118.317162 109.679703,118.398468 
	C109.679703,123.556946 109.679703,128.623398 109.679703,132.950409 
	C107.243225,133.834579 105.353569,134.520325 103.463913,135.206070 
	C104.383949,136.100296 105.303986,136.994537 107.083542,137.898224 
M134.735199,125.869164 
	C134.649017,129.949234 134.649002,134.034668 134.395554,138.104324 
	C134.351044,138.819107 133.129349,139.397339 132.659134,140.165817 
	C132.139740,141.014679 131.859497,142.009903 131.475113,142.941391 
	C132.651535,143.250412 134.509445,144.175934 134.885178,143.760605 
	C136.425873,142.057465 138.024796,140.093887 138.647980,137.948914 
	C139.530319,134.911911 137.281586,130.925323 141.622482,128.913925 
	C141.910995,128.780258 141.886185,126.891655 141.608292,126.775803 
	C137.278320,124.970505 139.592819,121.059288 138.637985,118.218719 
	C137.884186,115.976288 136.044037,114.049911 134.448898,112.186424 
	C134.173920,111.865173 132.558121,112.350227 131.856400,112.864769 
	C131.440582,113.169655 131.323853,114.806816 131.544983,114.919716 
	C136.120544,117.255646 133.923584,121.547279 134.735199,125.869164 
M39.335564,112.807899 
	C38.476803,114.479652 37.328396,116.068504 36.821175,117.840858 
	C35.844830,121.252426 35.231331,124.767830 34.347092,128.786774 
	C37.818592,129.826904 36.784260,133.791885 36.718418,137.275452 
	C36.659691,140.382401 37.354248,142.964661 40.649105,143.847076 
	C41.550259,144.088409 42.706139,143.378616 43.745125,143.105301 
	C43.424423,142.136703 43.184799,141.131027 42.762791,140.208786 
	C42.217796,139.017761 41.021652,137.909576 40.984299,136.737717 
	C40.797668,130.882385 40.847496,125.017029 40.948143,119.157494 
	C40.965145,118.167702 41.552158,117.145538 42.029270,116.217201 
	C42.545898,115.211967 43.242207,114.299080 43.860146,113.345917 
	C42.576817,113.014946 41.293491,112.683983 39.335564,112.807899 
M79.813805,44.558681 
	C79.188606,42.250237 78.563408,39.941795 77.938210,37.633354 
	C78.374352,37.543980 78.810493,37.454605 79.246635,37.365231 
	C79.853363,38.267349 80.460083,39.169468 81.650734,40.939800 
	C81.650734,38.466572 81.650734,37.129177 81.650734,36.341019 
	C78.511635,36.341019 75.729179,36.341019 72.946724,36.341019 
	C74.240761,37.605194 76.419106,38.194202 76.395073,38.672596 
	C76.278610,40.991409 75.571106,43.280540 74.972359,46.044960 
	C76.021690,45.822750 77.638245,45.480427 79.813805,44.558681 
z"/>
<path fill="#101010" opacity="1.000000" stroke="none" 
	d="
M66.154182,115.410950 
	C68.238541,120.556732 70.154709,125.323166 72.138237,130.061386 
	C72.640007,131.260040 73.284821,132.415695 73.996147,133.504715 
	C74.628899,134.473434 75.444786,135.322540 76.179848,136.224426 
	C74.930565,136.784424 73.708496,137.423004 72.419861,137.869385 
	C71.825912,138.075119 71.059700,138.052048 70.444687,137.876572 
	C68.808708,137.409836 67.212448,136.803909 65.600388,136.253326 
	C66.567673,135.055725 67.534958,133.858124 69.011406,132.030121 
	C65.126793,132.030121 61.551617,132.030121 56.583996,132.030121 
	C58.363941,133.149490 59.511536,133.491272 59.587936,133.995392 
	C59.767551,135.180573 59.524532,137.494675 59.296814,137.513977 
	C56.680447,137.735641 54.020481,137.744415 51.411354,137.455490 
	C50.971493,137.406799 50.143894,135.361954 50.467365,134.775513 
	C53.407963,129.444443 56.564346,124.232407 59.875851,118.615364 
	C57.557911,118.032196 55.993938,118.066544 55.219269,117.301575 
	C54.651562,116.740952 55.119858,115.131195 55.126411,113.989037 
	C58.754597,114.333076 62.382778,114.677109 66.154182,115.410950 
M65.741318,125.140160 
	C65.011070,123.449280 64.280830,121.758392 63.166550,119.178291 
	C61.901711,122.289528 61.010391,124.481979 59.655437,127.814865 
	C62.413754,126.985367 64.187859,126.451843 65.741318,125.140160 
z"/>
<path fill="#111111" opacity="1.000000" stroke="none" 
	d="
M129.111725,71.081070 
	C127.783943,69.928276 126.464340,68.404106 125.363045,68.548218 
	C123.493546,68.792862 121.761665,70.089165 119.971947,70.943481 
	C121.228012,72.166885 122.296600,73.760201 123.789299,74.516693 
	C125.514610,75.391083 128.119781,74.956558 129.432373,76.118752 
	C131.440277,77.896553 133.861832,80.550224 133.871017,82.841057 
	C133.879181,84.877533 131.124817,88.266869 129.096634,88.688843 
	C124.945877,89.552406 120.451118,88.969536 116.134300,88.580048 
	C115.560059,88.528229 114.829803,86.129700 114.840370,84.823357 
	C114.850853,83.527962 115.706291,82.239395 116.191147,80.947838 
	C117.167007,81.635765 118.094917,82.408882 119.130028,82.991547 
	C120.663185,83.854568 122.362816,85.356400 123.827881,85.185211 
	C125.986389,84.933014 128.000793,83.447517 130.076584,82.487320 
	C128.427261,81.381485 126.786842,80.261894 125.119362,79.184158 
	C124.859550,79.016235 124.475761,79.041885 124.150223,78.973633 
	C117.446663,77.568222 114.904984,74.841507 115.848862,70.068871 
	C116.711494,65.707062 121.711693,63.467152 127.534134,64.733376 
	C129.109055,65.075874 130.749405,65.117508 133.474762,65.421692 
	C133.071564,67.978645 132.669373,70.529213 132.267181,73.079788 
	C131.250824,72.539864 130.234467,71.999931 129.111725,71.081070 
z"/>
<path fill="#111111" opacity="1.000000" stroke="none" 
	d="
M85.090355,72.269348 
	C87.504303,83.884987 83.352005,88.991661 71.903259,89.007675 
	C70.238739,89.010002 68.568665,89.090179 66.910927,88.983093 
	C64.128326,88.803368 64.042953,88.171104 64.709274,85.052048 
	C65.826149,79.823898 64.926285,74.172966 64.966461,68.700623 
	C64.975525,67.466553 65.014565,65.380371 65.624832,65.133675 
	C72.412819,62.389668 81.364525,65.633102 85.090355,72.269348 
M70.247513,80.269127 
	C70.320732,81.721016 70.393951,83.172897 70.548042,86.228287 
	C74.466820,84.609589 78.841187,84.129417 80.389511,81.783798 
	C81.887787,79.513985 81.312614,74.991791 80.144661,72.057335 
	C78.482109,67.880165 74.228096,68.923920 70.246910,69.147469 
	C70.246910,72.738319 70.246910,76.034126 70.247513,80.269127 
z"/>
<path fill="#121212" opacity="1.000000" stroke="none" 
	d="
M98.141937,124.813904 
	C94.183136,127.127472 90.389816,129.086365 86.596497,131.045273 
	C85.065834,132.243866 84.921280,133.885880 88.356773,133.895279 
	C89.601936,133.898666 90.843590,135.186920 92.086845,135.888901 
	C90.757568,136.562225 89.479813,137.643097 88.087654,137.819092 
	C85.631172,138.129639 83.087723,138.052689 80.616798,137.793533 
	C79.690094,137.696350 78.864151,136.638550 77.992264,136.018707 
	C78.529510,135.302414 79.133789,134.625809 79.587219,133.859909 
	C80.166428,132.881546 81.003822,131.852798 81.063553,130.807693 
	C81.253235,127.488777 81.177681,124.151192 81.104500,120.823036 
	C81.084198,119.899742 80.905167,118.877594 80.462067,118.090431 
	C79.829231,116.966179 78.886177,116.016563 78.075607,114.992363 
	C79.577209,114.578972 81.060928,113.916817 82.584373,113.807297 
	C85.233818,113.616814 87.911774,113.676743 90.570702,113.793137 
	C97.109932,114.079384 99.805275,117.841042 98.141937,124.813904 
M85.282303,122.463997 
	C85.067192,127.038994 88.518333,125.620117 90.428452,125.064102 
	C92.129883,124.568810 94.574417,122.679184 94.641594,121.304756 
	C94.801781,118.027344 91.831924,118.013710 89.233482,117.821724 
	C86.336136,117.607643 84.683403,118.285042 85.282303,122.463997 
z"/>
<path fill="#0E0E0E" opacity="1.000000" stroke="none" 
	d="
M93.338974,88.999687 
	C89.149834,88.904533 85.377831,89.174164 90.506584,84.222618 
	C92.555458,82.244545 90.316360,69.399155 87.806450,66.536049 
	C88.973877,65.930099 89.962112,65.049538 91.030418,64.938370 
	C93.331635,64.698914 95.681015,64.970390 97.998367,64.829735 
	C108.933746,64.165947 112.394295,74.975365 109.247589,83.017052 
	C107.660004,87.074280 104.194801,89.005676 99.763184,88.988182 
	C97.769836,88.980316 95.776413,88.995506 93.338974,88.999687 
M94.917374,78.427696 
	C94.917374,80.518234 94.917374,82.608772 94.917374,86.488602 
	C99.155228,84.586952 103.619301,83.977654 104.919884,81.621864 
	C106.318321,79.088837 105.800766,74.238396 104.145866,71.671173 
	C102.780670,69.553352 98.536140,69.291634 94.917351,67.969933 
	C94.917351,72.204330 94.917351,74.832321 94.917374,78.427696 
z"/>
<path fill="#101010" opacity="1.000000" stroke="none" 
	d="
M55.398125,88.630951 
	C48.345467,90.238693 44.343998,88.795326 41.284569,83.847359 
	C38.567848,79.453651 39.125881,72.333084 42.494499,68.408554 
	C46.768661,63.429043 53.117981,62.809608 57.949341,66.900772 
	C63.473156,71.578300 64.103706,80.293419 59.217510,85.665939 
	C58.230236,86.751472 56.900120,87.525192 55.398125,88.630951 
M44.749870,81.382187 
	C46.539440,84.313934 48.933502,86.029167 52.546196,85.143517 
	C56.487942,84.177208 58.867130,80.016968 58.163689,75.400513 
	C57.545559,71.343933 53.952820,67.988358 50.538021,68.278252 
	C46.814964,68.594322 43.840530,72.298958 43.835175,76.777924 
	C43.833618,78.079468 44.144207,79.381378 44.749870,81.382187 
z"/>
<path fill="#0E0E0E" opacity="1.000000" stroke="none" 
	d="
M106.653778,137.893494 
	C105.303986,136.994537 104.383949,136.100296 103.463913,135.206070 
	C105.353569,134.520325 107.243225,133.834579 109.679703,132.950409 
	C109.679703,128.623398 109.679703,123.556946 109.679703,118.398468 
	C109.556580,118.317162 109.323708,118.115753 109.054840,117.993477 
	C107.171989,117.137222 105.281708,116.297318 103.393799,115.452179 
	C105.280243,114.889603 107.136070,114.039230 109.060585,113.834518 
	C111.692818,113.554527 114.398453,113.566803 117.030663,113.847412 
	C118.402702,113.993690 119.684799,114.983589 121.007515,115.592445 
	C119.766434,116.359848 118.583084,117.258301 117.260605,117.840950 
	C116.569534,118.145424 115.633827,117.894638 114.465416,117.894638 
	C114.465416,123.108910 114.465416,128.147461 114.465416,133.555435 
	C115.692993,133.635406 117.038139,133.485382 118.207100,133.870331 
	C119.241959,134.211136 120.080780,135.147186 121.006149,135.820450 
	C120.025574,136.510147 119.080414,137.725998 118.058052,137.794800 
	C114.414070,138.040054 110.743835,137.895340 106.653778,137.893494 
z"/>
<path fill="#151515" opacity="1.000000" stroke="none" 
	d="
M134.645859,125.433105 
	C133.923584,121.547279 136.120544,117.255646 131.544983,114.919716 
	C131.323853,114.806816 131.440582,113.169655 131.856400,112.864769 
	C132.558121,112.350227 134.173920,111.865173 134.448898,112.186424 
	C136.044037,114.049911 137.884186,115.976288 138.637985,118.218719 
	C139.592819,121.059288 137.278320,124.970505 141.608292,126.775803 
	C141.886185,126.891655 141.910995,128.780258 141.622482,128.913925 
	C137.281586,130.925323 139.530319,134.911911 138.647980,137.948914 
	C138.024796,140.093887 136.425873,142.057465 134.885178,143.760605 
	C134.509445,144.175934 132.651535,143.250412 131.475113,142.941376 
	C131.859497,142.009903 132.139740,141.014679 132.659134,140.165817 
	C133.129349,139.397339 134.351044,138.819107 134.395554,138.104324 
	C134.649002,134.034668 134.649017,129.949234 134.645859,125.433105 
z"/>
<path fill="#121212" opacity="1.000000" stroke="none" 
	d="
M39.672867,112.580460 
	C41.293491,112.683983 42.576817,113.014946 43.860146,113.345917 
	C43.242207,114.299080 42.545898,115.211967 42.029270,116.217201 
	C41.552158,117.145538 40.965145,118.167702 40.948143,119.157494 
	C40.847496,125.017029 40.797668,130.882385 40.984299,136.737717 
	C41.021652,137.909576 42.217796,139.017761 42.762791,140.208786 
	C43.184799,141.131027 43.424423,142.136703 43.745125,143.105316 
	C42.706139,143.378616 41.550259,144.088409 40.649105,143.847076 
	C37.354248,142.964661 36.659691,140.382401 36.718418,137.275452 
	C36.784260,133.791885 37.818592,129.826904 34.347092,128.786774 
	C35.231331,124.767830 35.844830,121.252426 36.821175,117.840858 
	C37.328396,116.068504 38.476803,114.479652 39.672867,112.580460 
z"/>
<path fill="#1F1F1F" opacity="1.000000" stroke="none" 
	d="
M91.981125,44.938286 
	C89.197113,45.306198 86.413101,45.674110 83.600739,46.045769 
	C83.774933,42.374470 83.923164,39.250340 84.091019,35.712563 
	C86.345352,35.712563 88.885887,35.712563 91.651802,36.244896 
	C91.915115,39.345276 91.953041,41.913330 91.992233,44.595688 
	C91.993515,44.709991 91.981125,44.938286 91.981125,44.938286 
M87.545494,44.690121 
	C87.948608,43.955723 88.351723,43.221325 88.754829,42.486923 
	C88.019547,42.405540 87.284256,42.324158 86.548973,42.242771 
	C86.644089,42.892761 86.739197,43.542747 87.545494,44.690121 
z"/>
<path fill="#1E1E1E" opacity="1.000000" stroke="none" 
	d="
M92.403008,44.907593 
	C91.981125,44.938286 91.993515,44.709991 92.397011,44.677437 
	C96.229439,41.874657 94.772232,38.956787 93.060783,36.031239 
	C94.867119,35.860085 96.680725,35.509396 98.477165,35.582249 
	C99.633369,35.629139 100.764320,36.298412 101.906593,36.688728 
	C101.196991,37.487225 100.471199,38.272152 99.785568,39.090714 
	C99.500923,39.430527 99.045464,39.886677 99.102310,40.214569 
	C100.100311,45.970940 96.234451,45.107101 92.403008,44.907593 
z"/>
<path fill="#151515" opacity="1.000000" stroke="none" 
	d="
M79.534302,44.848389 
	C77.638245,45.480427 76.021690,45.822750 74.972359,46.044960 
	C75.571106,43.280540 76.278610,40.991409 76.395073,38.672596 
	C76.419106,38.194202 74.240761,37.605194 72.946724,36.341019 
	C75.729179,36.341019 78.511635,36.341019 81.650734,36.341019 
	C81.650734,37.129177 81.650734,38.466572 81.650734,40.939800 
	C80.460083,39.169468 79.853363,38.267349 79.246635,37.365231 
	C78.810493,37.454605 78.374352,37.543980 77.938210,37.633354 
	C78.563408,39.941795 79.188606,42.250237 79.534302,44.848389 
z"/>
<path fill="#D0D0D0" opacity="1.000000" stroke="none" 
	d="
M92.804138,36.007950 
	C94.772232,38.956787 96.229439,41.874657 92.395737,44.563129 
	C91.953041,41.913330 91.915115,39.345276 91.954651,36.383884 
	C92.203911,35.988583 92.375694,35.986622 92.804138,36.007950 
z"/>
<path fill="#EDEDED" opacity="1.000000" stroke="none" 
	d="
M65.851639,125.529243 
	C64.187859,126.451843 62.413754,126.985367 59.655437,127.814865 
	C61.010391,124.481979 61.901711,122.289528 63.166550,119.178291 
	C64.280830,121.758392 65.011070,123.449280 65.851639,125.529243 
z"/>
<path fill="#EFEFEF" opacity="1.000000" stroke="none" 
	d="
M70.247208,79.799530 
	C70.246910,76.034126 70.246910,72.738319 70.246910,69.147469 
	C74.228096,68.923920 78.482109,67.880165 80.144661,72.057335 
	C81.312614,74.991791 81.887787,79.513985 80.389511,81.783798 
	C78.841187,84.129417 74.466820,84.609589 70.548042,86.228287 
	C70.393951,83.172897 70.320732,81.721016 70.247208,79.799530 
z"/>
<path fill="#EEEEEE" opacity="1.000000" stroke="none" 
	d="
M85.281929,122.013657 
	C84.683403,118.285042 86.336136,117.607643 89.233482,117.821724 
	C91.831924,118.013710 94.801781,118.027344 94.641594,121.304756 
	C94.574417,122.679184 92.129883,124.568810 90.428452,125.064102 
	C88.518333,125.620117 85.067192,127.038994 85.281929,122.013657 
z"/>
<path fill="#F7F7F7" opacity="1.000000" stroke="none" 
	d="
M94.917358,77.944000 
	C94.917351,74.832321 94.917351,72.204330 94.917351,67.969933 
	C98.536140,69.291634 102.780670,69.553352 104.145866,71.671173 
	C105.800766,74.238396 106.318321,79.088837 104.919884,81.621864 
	C103.619301,83.977654 99.155228,84.586952 94.917374,86.488602 
	C94.917374,82.608772 94.917374,80.518234 94.917358,77.944000 
z"/>
<path fill="#F6F6F6" opacity="1.000000" stroke="none" 
	d="
M44.530792,81.032654 
	C44.144207,79.381378 43.833618,78.079468 43.835175,76.777924 
	C43.840530,72.298958 46.814964,68.594322 50.538021,68.278252 
	C53.952820,67.988358 57.545559,71.343933 58.163689,75.400513 
	C58.867130,80.016968 56.487942,84.177208 52.546196,85.143517 
	C48.933502,86.029167 46.539440,84.313934 44.530792,81.032654 
z"/>
<path fill="#FCFCFC" opacity="1.000000" stroke="none" 
	d="
M87.189903,44.441429 
	C86.739197,43.542747 86.644089,42.892761 86.548973,42.242771 
	C87.284256,42.324158 88.019547,42.405540 88.754837,42.486923 
	C88.351723,43.221325 87.948608,43.955723 87.189903,44.441429 
z"/>
</svg>